<?xml version="1.0" encoding="UTF-8" standalone="no"?>
<!DOCTYPE svg PUBLIC "-//W3C//DTD SVG 1.1//EN"
 "http://www.w3.org/Graphics/SVG/1.1/DTD/svg11.dtd">
<!-- Generated by graphviz version 2.43.0 (0)
 -->
<!-- Title: snakemake_dag Pages: 1 -->
<svg width="152pt" height="404pt"
 viewBox="0.00 0.00 152.00 404.00" xmlns="http://www.w3.org/2000/svg" xmlns:xlink="http://www.w3.org/1999/xlink">
<g id="graph0" class="graph" transform="scale(1 1) rotate(0) translate(4 400)">
<title>snakemake_dag</title>
<polygon fill="white" stroke="transparent" points="-4,4 -4,-400 148,-400 148,4 -4,4"/>
<!-- 0 -->
<g id="node1" class="node">
<title>0</title>
<path fill="none" stroke="#d85656" stroke-width="2" d="M110.5,-36C110.5,-36 33.5,-36 33.5,-36 27.5,-36 21.5,-30 21.5,-24 21.5,-24 21.5,-12 21.5,-12 21.5,-6 27.5,0 33.5,0 33.5,0 110.5,0 110.5,0 116.5,0 122.5,-6 122.5,-12 122.5,-12 122.5,-24 122.5,-24 122.5,-30 116.5,-36 110.5,-36"/>
<text text-anchor="middle" x="72" y="-15.5" font-family="sans" font-size="10.00">scanpy_integrate</text>
</g>
<!-- 1 -->
<g id="node2" class="node">
<title>1</title>
<path fill="none" stroke="#b6d856" stroke-width="2" stroke-dasharray="5,2" d="M127,-108C127,-108 17,-108 17,-108 11,-108 5,-102 5,-96 5,-96 5,-84 5,-84 5,-78 11,-72 17,-72 17,-72 127,-72 127,-72 133,-72 139,-78 139,-84 139,-84 139,-96 139,-96 139,-102 133,-108 127,-108"/>
<text text-anchor="middle" x="72" y="-87.5" font-family="sans" font-size="10.00">scanpy_postQC_process</text>
</g>
<!-- 1&#45;&gt;0 -->
<g id="edge1" class="edge">
<title>1&#45;&gt;0</title>
<path fill="none" stroke="grey" stroke-width="2" d="M72,-71.7C72,-63.98 72,-54.71 72,-46.11"/>
<polygon fill="grey" stroke="grey" stroke-width="2" points="75.5,-46.1 72,-36.1 68.5,-46.1 75.5,-46.1"/>
</g>
<!-- 2 -->
<g id="node3" class="node">
<title>2</title>
<path fill="none" stroke="#56a9d8" stroke-width="2" stroke-dasharray="5,2" d="M132,-180C132,-180 12,-180 12,-180 6,-180 0,-174 0,-168 0,-168 0,-156 0,-156 0,-150 6,-144 12,-144 12,-144 132,-144 132,-144 138,-144 144,-150 144,-156 144,-156 144,-168 144,-168 144,-174 138,-180 132,-180"/>
<text text-anchor="middle" x="72" y="-159.5" font-family="sans" font-size="10.00">scanpy_doublet_detection</text>
</g>
<!-- 2&#45;&gt;1 -->
<g id="edge2" class="edge">
<title>2&#45;&gt;1</title>
<path fill="none" stroke="grey" stroke-width="2" d="M72,-143.7C72,-135.98 72,-126.71 72,-118.11"/>
<polygon fill="grey" stroke="grey" stroke-width="2" points="75.5,-118.1 72,-108.1 68.5,-118.1 75.5,-118.1"/>
</g>
<!-- 3 -->
<g id="node4" class="node">
<title>3</title>
<path fill="none" stroke="#56d86b" stroke-width="2" stroke-dasharray="5,2" d="M107.5,-252C107.5,-252 36.5,-252 36.5,-252 30.5,-252 24.5,-246 24.5,-240 24.5,-240 24.5,-228 24.5,-228 24.5,-222 30.5,-216 36.5,-216 36.5,-216 107.5,-216 107.5,-216 113.5,-216 119.5,-222 119.5,-228 119.5,-228 119.5,-240 119.5,-240 119.5,-246 113.5,-252 107.5,-252"/>
<text text-anchor="middle" x="72" y="-231.5" font-family="sans" font-size="10.00">scanpy_qc_filter</text>
</g>
<!-- 3&#45;&gt;2 -->
<g id="edge3" class="edge">
<title>3&#45;&gt;2</title>
<path fill="none" stroke="grey" stroke-width="2" d="M72,-215.7C72,-207.98 72,-198.71 72,-190.11"/>
<polygon fill="grey" stroke="grey" stroke-width="2" points="75.5,-190.1 72,-180.1 68.5,-190.1 75.5,-190.1"/>
</g>
<!-- 4 -->
<g id="node5" class="node">
<title>4</title>
<path fill="none" stroke="#d8a456" stroke-width="2" stroke-dasharray="5,2" d="M126,-324C126,-324 18,-324 18,-324 12,-324 6,-318 6,-312 6,-312 6,-300 6,-300 6,-294 12,-288 18,-288 18,-288 126,-288 126,-288 132,-288 138,-294 138,-300 138,-300 138,-312 138,-312 138,-318 132,-324 126,-324"/>
<text text-anchor="middle" x="72" y="-303.5" font-family="sans" font-size="10.00">scanpy_normalize_data</text>
</g>
<!-- 4&#45;&gt;3 -->
<g id="edge4" class="edge">
<title>4&#45;&gt;3</title>
<path fill="none" stroke="grey" stroke-width="2" d="M72,-287.7C72,-279.98 72,-270.71 72,-262.11"/>
<polygon fill="grey" stroke="grey" stroke-width="2" points="75.5,-262.1 72,-252.1 68.5,-262.1 75.5,-262.1"/>
</g>
<!-- 5 -->
<g id="node6" class="node">
<title>5</title>
<path fill="none" stroke="#56d0d8" stroke-width="2" stroke-dasharray="5,2" d="M112.5,-396C112.5,-396 31.5,-396 31.5,-396 25.5,-396 19.5,-390 19.5,-384 19.5,-384 19.5,-372 19.5,-372 19.5,-366 25.5,-360 31.5,-360 31.5,-360 112.5,-360 112.5,-360 118.5,-360 124.5,-366 124.5,-372 124.5,-372 124.5,-384 124.5,-384 124.5,-390 118.5,-396 112.5,-396"/>
<text text-anchor="middle" x="72" y="-375.5" font-family="sans" font-size="10.00">scanpy_read_data</text>
</g>
<!-- 5&#45;&gt;4 -->
<g id="edge5" class="edge">
<title>5&#45;&gt;4</title>
<path fill="none" stroke="grey" stroke-width="2" d="M72,-359.7C72,-351.98 72,-342.71 72,-334.11"/>
<polygon fill="grey" stroke="grey" stroke-width="2" points="75.5,-334.1 72,-324.1 68.5,-334.1 75.5,-334.1"/>
</g>
</g>
</svg>
