<?xml version="1.0" encoding="UTF-8" standalone="no"?>
<!DOCTYPE svg PUBLIC "-//W3C//DTD SVG 1.1//EN"
 "http://www.w3.org/Graphics/SVG/1.1/DTD/svg11.dtd">
<!-- Generated by graphviz version 2.43.0 (0)
 -->
<!-- Title: snakemake_dag Pages: 1 -->
<svg width="139pt" height="404pt"
 viewBox="0.00 0.00 139.00 404.00" xmlns="http://www.w3.org/2000/svg" xmlns:xlink="http://www.w3.org/1999/xlink">
<g id="graph0" class="graph" transform="scale(1 1) rotate(0) translate(4 400)">
<title>snakemake_dag</title>
<polygon fill="white" stroke="transparent" points="-4,4 -4,-400 135,-400 135,4 -4,4"/>
<!-- 0 -->
<g id="node1" class="node">
<title>0</title>
<path fill="none" stroke="#d87d56" stroke-width="2" d="M102,-36C102,-36 29,-36 29,-36 23,-36 17,-30 17,-24 17,-24 17,-12 17,-12 17,-6 23,0 29,0 29,0 102,0 102,0 108,0 114,-6 114,-12 114,-12 114,-24 114,-24 114,-30 108,-36 102,-36"/>
<text text-anchor="middle" x="65.5" y="-15.5" font-family="sans" font-size="10.00">seurat_integrate</text>
</g>
<!-- 1 -->
<g id="node2" class="node">
<title>1</title>
<path fill="none" stroke="#56d0d8" stroke-width="2" d="M119,-108C119,-108 12,-108 12,-108 6,-108 0,-102 0,-96 0,-96 0,-84 0,-84 0,-78 6,-72 12,-72 12,-72 119,-72 119,-72 125,-72 131,-78 131,-84 131,-84 131,-96 131,-96 131,-102 125,-108 119,-108"/>
<text text-anchor="middle" x="65.5" y="-87.5" font-family="sans" font-size="10.00">seurat_postQC_process</text>
</g>
<!-- 1&#45;&gt;0 -->
<g id="edge1" class="edge">
<title>1&#45;&gt;0</title>
<path fill="none" stroke="grey" stroke-width="2" d="M65.5,-71.7C65.5,-63.98 65.5,-54.71 65.5,-46.11"/>
<polygon fill="grey" stroke="grey" stroke-width="2" points="69,-46.1 65.5,-36.1 62,-46.1 69,-46.1"/>
</g>
<!-- 2 -->
<g id="node3" class="node">
<title>2</title>
<path fill="none" stroke="#d8cb56" stroke-width="2" d="M114.5,-180C114.5,-180 16.5,-180 16.5,-180 10.5,-180 4.5,-174 4.5,-168 4.5,-168 4.5,-156 4.5,-156 4.5,-150 10.5,-144 16.5,-144 16.5,-144 114.5,-144 114.5,-144 120.5,-144 126.5,-150 126.5,-156 126.5,-156 126.5,-168 126.5,-168 126.5,-174 120.5,-180 114.5,-180"/>
<text text-anchor="middle" x="65.5" y="-159.5" font-family="sans" font-size="10.00">seurat_doublet_finder</text>
</g>
<!-- 2&#45;&gt;1 -->
<g id="edge2" class="edge">
<title>2&#45;&gt;1</title>
<path fill="none" stroke="grey" stroke-width="2" d="M65.5,-143.7C65.5,-135.98 65.5,-126.71 65.5,-118.11"/>
<polygon fill="grey" stroke="grey" stroke-width="2" points="69,-118.1 65.5,-108.1 62,-118.1 69,-118.1"/>
</g>
<!-- 3 -->
<g id="node4" class="node">
<title>3</title>
<path fill="none" stroke="#567bd8" stroke-width="2" stroke-dasharray="5,2" d="M99.5,-252C99.5,-252 31.5,-252 31.5,-252 25.5,-252 19.5,-246 19.5,-240 19.5,-240 19.5,-228 19.5,-228 19.5,-222 25.5,-216 31.5,-216 31.5,-216 99.5,-216 99.5,-216 105.5,-216 111.5,-222 111.5,-228 111.5,-228 111.5,-240 111.5,-240 111.5,-246 105.5,-252 99.5,-252"/>
<text text-anchor="middle" x="65.5" y="-231.5" font-family="sans" font-size="10.00">seurat_qc_filter</text>
</g>
<!-- 3&#45;&gt;2 -->
<g id="edge3" class="edge">
<title>3&#45;&gt;2</title>
<path fill="none" stroke="grey" stroke-width="2" d="M65.5,-215.7C65.5,-207.98 65.5,-198.71 65.5,-190.11"/>
<polygon fill="grey" stroke="grey" stroke-width="2" points="69,-190.1 65.5,-180.1 62,-190.1 69,-190.1"/>
</g>
<!-- 4 -->
<g id="node5" class="node">
<title>4</title>
<path fill="none" stroke="#68d856" stroke-width="2" stroke-dasharray="5,2" d="M117.5,-324C117.5,-324 13.5,-324 13.5,-324 7.5,-324 1.5,-318 1.5,-312 1.5,-312 1.5,-300 1.5,-300 1.5,-294 7.5,-288 13.5,-288 13.5,-288 117.5,-288 117.5,-288 123.5,-288 129.5,-294 129.5,-300 129.5,-300 129.5,-312 129.5,-312 129.5,-318 123.5,-324 117.5,-324"/>
<text text-anchor="middle" x="65.5" y="-303.5" font-family="sans" font-size="10.00">seurat_normalize_data</text>
</g>
<!-- 4&#45;&gt;3 -->
<g id="edge4" class="edge">
<title>4&#45;&gt;3</title>
<path fill="none" stroke="grey" stroke-width="2" d="M65.5,-287.7C65.5,-279.98 65.5,-270.71 65.5,-262.11"/>
<polygon fill="grey" stroke="grey" stroke-width="2" points="69,-262.1 65.5,-252.1 62,-262.1 69,-262.1"/>
</g>
<!-- 5 -->
<g id="node6" class="node">
<title>5</title>
<path fill="none" stroke="#d85656" stroke-width="2" stroke-dasharray="5,2" d="M104,-396C104,-396 27,-396 27,-396 21,-396 15,-390 15,-384 15,-384 15,-372 15,-372 15,-366 21,-360 27,-360 27,-360 104,-360 104,-360 110,-360 116,-366 116,-372 116,-372 116,-384 116,-384 116,-390 110,-396 104,-396"/>
<text text-anchor="middle" x="65.5" y="-375.5" font-family="sans" font-size="10.00">seurat_read_data</text>
</g>
<!-- 5&#45;&gt;4 -->
<g id="edge5" class="edge">
<title>5&#45;&gt;4</title>
<path fill="none" stroke="grey" stroke-width="2" d="M65.5,-359.7C65.5,-351.98 65.5,-342.71 65.5,-334.11"/>
<polygon fill="grey" stroke="grey" stroke-width="2" points="69,-334.1 65.5,-324.1 62,-334.1 69,-334.1"/>
</g>
</g>
</svg>
